<svg id="baseline-directions_run-24px" xmlns="http://www.w3.org/2000/svg" viewBox="0 0 24 24">
  <defs>
    <style>
      .cls-1 {
        fill: none;
      }

      .cls-2 {
        fill: #a6ce39;
      }
    </style>
  </defs>
  <path id="Path_3" data-name="Path 3" class="cls-1" d="M0,0H24V24H0Z"/>
  <path id="Path_4" data-name="Path 4" class="cls-2" d="M13.49,5.48a2,2,0,1,0-2-2A2.006,2.006,0,0,0,13.49,5.48Zm-3.6,13.9,1-4.4,2.1,2v6h2v-7.5l-2.1-2,.6-3a7.322,7.322,0,0,0,5.5,2.5v-2a4.919,4.919,0,0,1-4.3-2.4l-1-1.6a2.062,2.062,0,0,0-1.7-1c-.3,0-.5.1-.8.1l-5.2,2.2v4.7h2V9.58l1.8-.7-1.6,8.1-4.9-1-.4,2Z"/>
</svg>
