<svg id="baseline-work-24px" xmlns="http://www.w3.org/2000/svg" viewBox="0 0 24 24">
  <defs>
    <style>
      .cls-1 {
        fill: none;
      }

      .cls-2 {
        fill: #a3238e;
      }
    </style>
  </defs>
  <path id="Path_13" data-name="Path 13" class="cls-1" d="M0,0H24V24H0Z"/>
  <path id="Path_14" data-name="Path 14" class="cls-2" d="M20,6H16V4a1.993,1.993,0,0,0-2-2H10A1.993,1.993,0,0,0,8,4V6H4A1.985,1.985,0,0,0,2.01,8L2,19a1.993,1.993,0,0,0,2,2H20a1.993,1.993,0,0,0,2-2V8A1.993,1.993,0,0,0,20,6ZM14,6H10V4h4Z"/>
</svg>
